<?xml version="1.0" encoding="UTF-8" standalone="no"?>
<!-- Created with Inkscape (http://www.inkscape.org/) -->

<svg
   xmlns:svg="http://www.w3.org/2000/svg"
   xmlns="http://www.w3.org/2000/svg"
   version="1.1"
   width="525"
   height="525"
   id="svg2894">
  <defs
     id="defs2898" />
  <path
     d="M 258.02822,449.92907 C 216.23561,444.16139 175.4234,427.25125 143.5,402.47542 133.44605,394.67252 115.73782,376.40039 109.18036,367.06291 94.835361,346.63637 87,321.34904 87,295.47948 87,232.75299 133.79919,178.8344 211.49716,152.043 c 12.57887,-4.33737 22.38442,-6.44909 54.00284,-11.62999 21.98019,-3.60161 22.02147,-3.60438 45.84382,-3.07652 22.28554,0.49381 23.74755,0.41839 22.37059,-1.15407 -4.73363,-5.40575 -5.94414,-12.7887 -3.0848,-18.81431 7.34694,-15.48252 38.4631,-19.396203 53.29234,-6.70293 11.63658,9.96048 8.84962,23.71074 -6.4033,31.59256 l -2.98135,1.54058 4.48135,1.13653 c 29.97155,7.6012 51.58857,15.78955 62.74173,23.76607 43.9615,31.44035 65.76184,69.17043 76.31237,132.07458 2.59087,15.44724 3.06152,20.66622 2.76579,30.66969 -0.32759,11.08174 -0.61314,12.59838 -3.53742,18.78881 -12.54914,26.56529 -45.29719,58.10305 -77.01214,74.16596 -9.30679,4.71368 -36.50951,15.59929 -40.66867,16.27423 -4.47109,0.72556 -5.52752,0.0301 -13.20131,-8.68994 -16.98624,-19.30225 -37.26172,-26.84624 -56.5324,-21.03426 -15.54003,4.68683 -26.35266,13.1073 -38.00509,29.59693 L 283.78817,452 l -6.14408,-0.10587 c -3.37925,-0.0582 -12.20639,-0.9425 -19.61587,-1.96506 z M 53.370467,205.66727 C 28.249651,197.29509 9.6491005,173.14627 4.8739644,142.70497 3.2875779,132.59182 4.3814573,113.41291 7.0815232,104 13.400552,81.970748 26.642885,65.164131 44.515165,56.490784 66.407186,45.866672 90.11011,48.494026 109.47263,63.691002 c 10.99999,8.633515 21.28575,25.372047 25.69146,41.808998 2.93139,10.93652 3.17098,33.37846 0.47933,44.89733 -3.70261,15.84522 -12.00927,31.16159 -21.7755,40.15109 C 101.02749,202.36763 89.929278,206.88516 72,207.59079 61.824211,207.99127 59.679043,207.76977 53.370467,205.66727 z M 286.3585,134.90933 c -16.39324,-4.75014 -29.32495,-29.97227 -26.30291,-51.301407 2.47678,-17.480694 12.49975,-27.621562 27.27732,-27.598154 23.44621,0.03714 40.59738,31.74999 32.21918,59.573871 -4.65394,15.45567 -18.57608,23.5613 -33.19359,19.32569 z m -123.4487,-23.2191 c -10.73876,-4.02211 -18.3823,-15.203079 -21.48735,-31.431676 -4.60026,-24.043396 3.1508,-47.582045 18.19894,-55.267068 7.13808,-3.64539 17.09219,-3.541645 23.5341,0.245281 4.81488,2.830469 9.31944,7.818493 12.27299,13.590231 l 1.70251,3.326998 2.68451,-3.490673 c 7.94555,-10.33164 20.80498,-12.551286 30.37613,-5.243174 15.61603,11.923728 17.20366,48.030713 2.74755,62.486821 -9.46114,9.46114 -22.25377,9.28757 -31.08911,-0.421812 C 200.10578,93.568321 198.38429,92 198.02453,92 c -0.35976,0 -1.45137,1.671884 -2.42581,3.715298 -2.78156,5.833012 -7.39457,11.080752 -12.23303,13.916282 -5.37156,3.14794 -14.96879,4.11379 -20.45589,2.05865 z"
     id="path2928"
     style="fill:#000000" />
</svg>
